<?xml version="1.0" ?><svg enable-background="new 0 0 64 64" height="64px" id="Layer_1" version="1.1" viewBox="0 0 64 64" width="64px" xml:space="preserve" xmlns="http://www.w3.org/2000/svg" xmlns:xlink="http://www.w3.org/1999/xlink"><circle cx="32" cy="32" fill="#E0995E" r="32"/><g opacity="0.2"><path d="M47,49c0,2.209-1.791,4-4,4H21c-2.209,0-4-1.791-4-4V17c0-2.209,1.791-4,4-4h22c2.209,0,4,1.791,4,4V49z" fill="#231F20"/></g><g><path d="M21,49.5c-1.378,0-2.5-1.122-2.5-2.5V15c0-1.378,1.122-2.5,2.5-2.5h22c1.378,0,2.5,1.122,2.5,2.5v32   c0,1.378-1.122,2.5-2.5,2.5H21z" fill="#4F5D73"/><path d="M43,14c0.551,0,1,0.449,1,1v32c0,0.551-0.449,1-1,1H21c-0.551,0-1-0.449-1-1V15c0-0.551,0.449-1,1-1H43    M43,11H21c-2.209,0-4,1.791-4,4v32c0,2.209,1.791,4,4,4h22c2.209,0,4-1.791,4-4V15C47,12.791,45.209,11,43,11L43,11z" fill="#FFFFFF"/></g><path d="M45,48.535V12.5H24.704l15.274,36.964C41.645,49.119,43.322,48.824,45,48.535z" fill="#FFFFFF" opacity="0.2"/><g><polygon fill="#FFFFFF" points="45,50 20,50 19,43 45,43  "/></g><g><circle cx="32" cy="47" fill="#E0E0D1" r="2"/></g></svg>