<?xml version="1.0" ?><svg enable-background="new 0 0 64 64" height="64px" id="Layer_1" version="1.1" viewBox="0 0 64 64" width="64px" xml:space="preserve" xmlns="http://www.w3.org/2000/svg" xmlns:xlink="http://www.w3.org/1999/xlink"><circle cx="32" cy="32" fill="#F5CF87" r="32"/><g><path d="M32,14.4V32l12.32,13.2C57.52,27.6,41.72,14.4,32,14.4z" fill="#E0995E"/></g><g opacity="0.2"><path d="M32,10.5C19.042,10.5,8.5,21.042,8.5,34S19.042,57.5,32,57.5S55.5,46.958,55.5,34S44.958,10.5,32,10.5z    M52.424,32.5h-2c-0.728-9.004-7.92-16.196-16.924-16.924v-2C43.606,14.313,51.687,22.394,52.424,32.5z M30.5,32.5H16.576   c0.71-7.351,6.573-13.214,13.924-13.924V32.5z M30.5,35.5v13.924c-7.351-0.71-13.214-6.573-13.924-13.924H30.5z M33.5,35.5h13.924   c-0.71,7.351-6.573,13.214-13.924,13.924V35.5z M33.5,32.5V18.576c7.351,0.71,13.214,6.573,13.924,13.924H33.5z M30.5,13.576v2   c-9.004,0.728-16.196,7.92-16.924,16.924h-2C12.313,22.394,20.394,14.313,30.5,13.576z M11.576,35.5h2   c0.728,9.004,7.92,16.196,16.924,16.924v2C20.394,53.687,12.313,45.606,11.576,35.5z M33.5,54.424v-2   c9.004-0.728,16.196-7.92,16.924-16.924h2C51.687,45.606,43.606,53.687,33.5,54.424z" fill="#231F20"/></g><g><path d="M30.5,47.424V33.5H16.576C17.286,40.851,23.149,46.714,30.5,47.424z" fill="none"/><path d="M47.424,33.5H33.5v13.924C40.851,46.714,46.714,40.851,47.424,33.5z" fill="none"/><path d="M33.5,16.576V30.5h13.924C46.714,23.149,40.851,17.286,33.5,16.576z" fill="none"/><path d="M33.5,13.576c9.004,0.728,16.196,7.92,16.924,16.924h2C51.687,20.394,43.606,12.313,33.5,11.576V13.576z" fill="none"/><path d="M16.576,30.5H30.5V16.576C23.149,17.286,17.286,23.149,16.576,30.5z" fill="none"/><path d="M13.576,30.5c0.728-9.004,7.92-16.196,16.924-16.924v-2C20.394,12.313,12.313,20.394,11.576,30.5H13.576z" fill="none"/><path d="M50.424,33.5c-0.728,9.004-7.92,16.196-16.924,16.924v2c10.106-0.737,18.187-8.818,18.924-18.924H50.424z" fill="none"/><path d="M30.5,50.424c-9.004-0.728-16.196-7.92-16.924-16.924h-2c0.737,10.106,8.818,18.187,18.924,18.924V50.424z" fill="none"/><path d="M32,8.5C19.042,8.5,8.5,19.042,8.5,32S19.042,55.5,32,55.5S55.5,44.958,55.5,32S44.958,8.5,32,8.5z    M52.424,30.5h-2c-0.728-9.004-7.92-16.196-16.924-16.924v-2C43.606,12.313,51.687,20.394,52.424,30.5z M30.5,30.5H16.576   c0.71-7.351,6.573-13.214,13.924-13.924V30.5z M30.5,33.5v13.924c-7.351-0.71-13.214-6.573-13.924-13.924H30.5z M33.5,33.5h13.924   c-0.71,7.351-6.573,13.214-13.924,13.924V33.5z M33.5,30.5V16.576c7.351,0.71,13.214,6.573,13.924,13.924H33.5z M30.5,11.576v2   c-9.004,0.728-16.196,7.92-16.924,16.924h-2C12.313,20.394,20.394,12.313,30.5,11.576z M11.576,33.5h2   c0.728,9.004,7.92,16.196,16.924,16.924v2C20.394,51.687,12.313,43.606,11.576,33.5z M33.5,52.424v-2   c9.004-0.728,16.196-7.92,16.924-16.924h2C51.687,43.606,43.606,51.687,33.5,52.424z" fill="#4F5D73"/></g></svg>